# Blender 4.0.2
# www.blender.org
mtllib hexagon.mtl
o Circle
v 0.000000 0.000000 -1.000000
v -0.866025 0.000000 -0.500000
v -0.866025 0.000000 0.500000
v 0.000000 0.000000 1.000000
v 0.866025 0.000000 0.500000
v 0.866025 0.000000 -0.500000
v 0.000000 0.000000 -0.864931
v -0.749052 0.000000 -0.432465
v -0.749052 0.000000 0.432465
v 0.000000 0.000000 0.864931
v 0.749052 0.000000 0.432465
v 0.749052 0.000000 -0.432465
v 0.000000 0.027334 -1.000000
v -0.866025 0.027334 -0.500000
v -0.866025 0.027334 0.500000
v 0.000000 0.027334 1.000000
v 0.866025 0.027334 0.500000
v 0.866025 0.027334 -0.500000
v 0.000000 0.027334 -0.864931
v -0.749052 0.027334 -0.432465
v -0.749052 0.027334 0.432465
v 0.000000 0.027334 0.864931
v 0.749052 0.027334 0.432465
v 0.749052 0.027334 -0.432465
vn -0.0000 1.0000 -0.0000
vn -0.0000 -1.0000 -0.0000
vn -0.5000 -0.0000 0.8660
vn 0.5000 -0.0000 -0.8660
vn 0.5000 -0.0000 0.8660
vn -0.5000 -0.0000 -0.8660
vn 1.0000 -0.0000 -0.0000
vn -1.0000 -0.0000 -0.0000
vt 0.000000 0.000000
s 0
f 1/1/1 7/1/1 12/1/1 6/1/1
f 5/1/1 11/1/1 10/1/1 4/1/1
f 3/1/1 9/1/1 8/1/1 2/1/1
f 6/1/1 12/1/1 11/1/1 5/1/1
f 4/1/1 10/1/1 9/1/1 3/1/1
f 2/1/1 8/1/1 7/1/1 1/1/1
f 13/1/2 18/1/2 24/1/2 19/1/2
f 17/1/2 16/1/2 22/1/2 23/1/2
f 15/1/2 14/1/2 20/1/2 21/1/2
f 18/1/2 17/1/2 23/1/2 24/1/2
f 16/1/2 15/1/2 21/1/2 22/1/2
f 14/1/2 13/1/2 19/1/2 20/1/2
f 1/1/3 6/1/3 18/1/3 13/1/3
f 4/1/4 3/1/4 15/1/4 16/1/4
f 10/1/5 11/1/5 23/1/5 22/1/5
f 7/1/6 8/1/6 20/1/6 19/1/6
f 5/1/6 4/1/6 16/1/6 17/1/6
f 11/1/7 12/1/7 24/1/7 23/1/7
f 2/1/5 1/1/5 13/1/5 14/1/5
f 8/1/8 9/1/8 21/1/8 20/1/8
f 6/1/8 5/1/8 17/1/8 18/1/8
f 12/1/4 7/1/4 19/1/4 24/1/4
f 3/1/7 2/1/7 14/1/7 15/1/7
f 9/1/3 10/1/3 22/1/3 21/1/3
