# Blender 4.0.2
# www.blender.org
mtllib pentagon.mtl
o Circle
v 0.000000 0.000000 -1.000000
v -0.951057 0.000000 -0.309017
v -0.587785 0.000000 0.809017
v 0.587785 0.000000 0.809017
v 0.951057 0.000000 -0.309017
v -0.000000 0.000000 -1.174631
v -1.117140 0.000000 -0.362981
v -0.690431 0.000000 0.950296
v 0.690431 0.000000 0.950296
v 1.117140 0.000000 -0.362981
v 0.000000 0.036438 -1.000000
v -0.951057 0.036438 -0.309017
v -0.587785 0.036438 0.809017
v 0.587785 0.036438 0.809017
v 0.951057 0.036438 -0.309017
v -0.000000 0.036438 -1.174631
v -1.117140 0.036438 -0.362981
v -0.690431 0.036438 0.950296
v 0.690431 0.036438 0.950296
v 1.117140 0.036438 -0.362981
vn -0.0000 -1.0000 -0.0000
vn -0.0000 1.0000 -0.0000
vn 0.5878 -0.0000 0.8090
vn -0.0000 -0.0000 1.0000
vn -0.5878 -0.0000 0.8090
vn 0.9511 -0.0000 -0.3090
vn 0.9511 -0.0000 0.3090
vn -0.5878 -0.0000 -0.8090
vn -0.0000 -0.0000 -1.0000
vn 0.5878 -0.0000 -0.8090
vn -0.9511 -0.0000 0.3090
vn -0.9511 -0.0000 -0.3090
vt 0.000000 0.000000
s 0
f 1/1/1 6/1/1 10/1/1 5/1/1
f 4/1/1 9/1/1 8/1/1 3/1/1
f 2/1/1 7/1/1 6/1/1 1/1/1
f 5/1/1 10/1/1 9/1/1 4/1/1
f 3/1/1 8/1/1 7/1/1 2/1/1
f 11/1/2 15/1/2 20/1/2 16/1/2
f 14/1/2 13/1/2 18/1/2 19/1/2
f 12/1/2 11/1/2 16/1/2 17/1/2
f 15/1/2 14/1/2 19/1/2 20/1/2
f 13/1/2 12/1/2 17/1/2 18/1/2
f 2/1/3 1/1/3 11/1/3 12/1/3
f 8/1/4 9/1/4 19/1/4 18/1/4
f 1/1/5 5/1/5 15/1/5 11/1/5
f 3/1/6 2/1/6 12/1/6 13/1/6
f 9/1/7 10/1/7 20/1/7 19/1/7
f 6/1/8 7/1/8 17/1/8 16/1/8
f 4/1/9 3/1/9 13/1/9 14/1/9
f 10/1/10 6/1/10 16/1/10 20/1/10
f 7/1/11 8/1/11 18/1/11 17/1/11
f 5/1/12 4/1/12 14/1/12 15/1/12
